<svg width="7" height="12" viewBox="0 0 7 12" fill="none" xmlns="http://www.w3.org/2000/svg">
<path d="M1.41507 1.43051e-05C1.48087 -0.000366211 1.5461 0.0122461 1.60702 0.0371284C1.66794 0.0620108 1.72335 0.0986738 1.77007 0.145015L5.85507 4.23001C6.08789 4.46224 6.2726 4.73811 6.39863 5.04184C6.52466 5.34556 6.58954 5.67117 6.58954 6.00001C6.58954 6.32884 6.52466 6.65445 6.39863 6.95817C6.2726 7.2619 6.08789 7.53778 5.85507 7.77L1.77007 11.855C1.72345 11.9016 1.66811 11.9386 1.60719 11.9638C1.54628 11.9891 1.481 12.002 1.41507 12.002C1.34914 12.002 1.28386 11.9891 1.22295 11.9638C1.16203 11.9386 1.10669 11.9016 1.06007 11.855C1.01345 11.8084 0.97647 11.753 0.95124 11.6921C0.92601 11.6312 0.913024 11.5659 0.913024 11.5C0.913024 11.4341 0.92601 11.3688 0.95124 11.3079C0.97647 11.247 1.01345 11.1916 1.06007 11.145L5.14507 7.06001C5.42597 6.77875 5.58375 6.39751 5.58375 6.00001C5.58375 5.60251 5.42597 5.22126 5.14507 4.94001L1.06007 0.855013C1.01321 0.808531 0.976008 0.753231 0.950624 0.692302C0.925239 0.631372 0.91217 0.566019 0.91217 0.500013C0.91217 0.434008 0.925239 0.368655 0.950624 0.307725C0.976008 0.246796 1.01321 0.191496 1.06007 0.145015C1.10679 0.0986738 1.1622 0.0620108 1.22312 0.0371284C1.28403 0.0122461 1.34927 -0.000366211 1.41507 1.43051e-05Z" fill="#A2A2B5"/>
</svg>
