<svg width="66" height="24" viewBox="0 0 66 24" fill="none" xmlns="http://www.w3.org/2000/svg">
<path fill-rule="evenodd" clip-rule="evenodd" d="M31 4C28.9289 4 27.25 5.67893 27.25 7.75C27.25 9.82107 28.9289 11.5 31 11.5C33.0711 11.5 34.75 9.82107 34.75 7.75C34.75 5.67893 33.0711 4 31 4ZM28.75 7.75C28.75 6.50736 29.7574 5.5 31 5.5C32.2426 5.5 33.25 6.50736 33.25 7.75C33.25 8.99264 32.2426 10 31 10C29.7574 10 28.75 8.99264 28.75 7.75Z" fill="#A2A2B5"/>
<path fill-rule="evenodd" clip-rule="evenodd" d="M28 13C25.9289 13 24.25 14.6789 24.25 16.75C24.25 18.8211 25.9289 20.5 28 20.5H34C36.0711 20.5 37.75 18.8211 37.75 16.75C37.75 14.6789 36.0711 13 34 13H28ZM25.75 16.75C25.75 15.5074 26.7574 14.5 28 14.5H34C35.2426 14.5 36.25 15.5074 36.25 16.75C36.25 17.9926 35.2426 19 34 19H28C26.7574 19 25.75 17.9926 25.75 16.75Z" fill="#A2A2B5"/>
<path d="M26.7521 10.3887C26.5944 10.1353 26.2985 10 26 10C24.7574 10 23.75 8.99264 23.75 7.75C23.75 6.50736 24.7574 5.5 26 5.5C26.2985 5.5 26.5944 5.36473 26.7521 5.11135C26.7591 5.10014 26.7661 5.08896 26.7732 5.07782C27.0358 4.66331 26.9027 4.0764 26.415 4.0227C26.2787 4.0077 26.1403 4 26 4C23.9289 4 22.25 5.67893 22.25 7.75C22.25 9.82107 23.9289 11.5 26 11.5C26.1403 11.5 26.2787 11.4923 26.415 11.4773C26.9027 11.4236 27.0358 10.8367 26.7732 10.4222C26.7661 10.411 26.7591 10.3999 26.7521 10.3887Z" fill="#A2A2B5"/>
<path d="M23.7083 18.3169C23.5948 18.1275 23.3944 18 23.1736 18H23C21.7574 18 20.75 16.9926 20.75 15.75C20.75 14.5074 21.7574 13.5 23 13.5H23.1736C23.3944 13.5 23.5948 13.3725 23.7083 13.1831C23.9854 12.7208 23.6847 12 23.1457 12H23C20.9289 12 19.25 13.6789 19.25 15.75C19.25 17.8211 20.9289 19.5 23 19.5H23.1457C23.6847 19.5 23.9854 18.7792 23.7083 18.3169Z" fill="#A2A2B5"/>
<path d="M35.2268 10.4222C34.9642 10.8367 35.0973 11.4236 35.585 11.4773C35.7213 11.4923 35.8597 11.5 36 11.5C38.0711 11.5 39.75 9.82107 39.75 7.75C39.75 5.67893 38.0711 4 36 4C35.8597 4 35.7213 4.0077 35.585 4.0227C35.0973 4.0764 34.9642 4.66331 35.2268 5.07782C35.2339 5.08896 35.2409 5.10014 35.2479 5.11134C35.4056 5.36472 35.7015 5.5 36 5.5C37.2426 5.5 38.25 6.50736 38.25 7.75C38.25 8.99264 37.2426 10 36 10C35.7015 10 35.4056 10.1353 35.2479 10.3887C35.2409 10.3999 35.2339 10.411 35.2268 10.4222Z" fill="#A2A2B5"/>
<path d="M38.2917 18.3169C38.0146 18.7792 38.3153 19.5 38.8543 19.5H39C41.0711 19.5 42.75 17.8211 42.75 15.75C42.75 13.6789 41.0711 12 39 12H38.8543C38.3153 12 38.0146 12.7208 38.2917 13.1831C38.4052 13.3725 38.6056 13.5 38.8264 13.5H39C40.2426 13.5 41.25 14.5074 41.25 15.75C41.25 16.9926 40.2426 18 39 18H38.8264C38.6056 18 38.4052 18.1275 38.2917 18.3169Z" fill="#A2A2B5"/>
</svg>
