<svg width="21" height="21" viewBox="0 0 21 21" fill="none" xmlns="http://www.w3.org/2000/svg">
<path d="M12.649 8.3511C12.999 8.70112 12.999 9.26891 12.649 9.61892C12.299 9.96887 11.7311 9.96891 11.3811 9.61892C10.0978 8.33555 8.01723 8.33555 6.73386 9.61892L2.85927 13.4935C1.5759 14.7769 1.57521 16.8581 2.85858 18.1415C4.14195 19.4249 6.22319 19.4242 7.50656 18.1408L9.5464 16.101C9.89642 15.7511 10.4642 15.751 10.8142 16.101C11.1641 16.4509 11.1641 17.0188 10.8142 17.3688L8.77438 19.4086C6.79099 21.392 3.57484 21.392 1.59145 19.4086C-0.391946 17.4252 -0.391946 14.2091 1.59145 12.2257L5.46603 8.3511C7.44943 6.36771 10.6656 6.36771 12.649 8.3511ZM19.4086 1.59147C21.3919 3.57478 21.3924 6.79032 19.4093 8.77371L15.534 12.649C13.5506 14.6323 10.3345 14.6323 8.35109 12.649C8.0011 12.299 8.00115 11.7312 8.35109 11.3812C8.7011 11.0312 9.2689 11.0312 9.61891 11.3812C10.9023 12.6645 12.9828 12.6645 14.2662 11.3812L18.1415 7.50589C19.4246 6.22252 19.4247 4.14189 18.1415 2.8586C16.8582 1.57531 14.7776 1.57549 13.4942 2.8586L11.8038 4.54902C11.4537 4.89887 10.8859 4.89897 10.5359 4.54902C10.186 4.19907 10.1861 3.63123 10.5359 3.2812L12.2264 1.59078C14.2098 -0.392355 17.4253 -0.39184 19.4086 1.59147Z" fill="#A2A2B5"/>
</svg>
