<svg width="20" height="14" viewBox="0 0 20 14" fill="none" xmlns="http://www.w3.org/2000/svg">
<path d="M15.8333 13.6669H4.16667C3.062 13.6656 2.00296 13.2262 1.22185 12.4451C0.440735 11.664 0.00132321 10.6049 0 9.50025L0 4.50025C0.00132321 3.39559 0.440735 2.33655 1.22185 1.55544C2.00296 0.774323 3.062 0.334911 4.16667 0.333588H15.8333C16.938 0.334911 17.997 0.774323 18.7782 1.55544C19.5593 2.33655 19.9987 3.39559 20 4.50025V9.50025C19.9987 10.6049 19.5593 11.664 18.7782 12.4451C17.997 13.2262 16.938 13.6656 15.8333 13.6669ZM4.16667 2.00025C3.50363 2.00025 2.86774 2.26365 2.3989 2.73249C1.93006 3.20133 1.66667 3.83721 1.66667 4.50025V9.50025C1.66667 10.1633 1.93006 10.7992 2.3989 11.268C2.86774 11.7369 3.50363 12.0003 4.16667 12.0003H15.8333C16.4964 12.0003 17.1323 11.7369 17.6011 11.268C18.0699 10.7992 18.3333 10.1633 18.3333 9.50025V4.50025C18.3333 3.83721 18.0699 3.20133 17.6011 2.73249C17.1323 2.26365 16.4964 2.00025 15.8333 2.00025H4.16667ZM10 10.3336C9.34073 10.3336 8.69626 10.1381 8.1481 9.77182C7.59994 9.40555 7.17269 8.88495 6.9204 8.27587C6.66811 7.66678 6.6021 6.99656 6.73072 6.34995C6.85933 5.70335 7.1768 5.10941 7.64298 4.64323C8.10915 4.17706 8.7031 3.85959 9.3497 3.73097C9.9963 3.60235 10.6665 3.66836 11.2756 3.92066C11.8847 4.17295 12.4053 4.60019 12.7716 5.14835C13.1378 5.69652 13.3333 6.34098 13.3333 7.00025C13.3333 7.88431 12.9821 8.73216 12.357 9.35728C11.7319 9.9824 10.8841 10.3336 10 10.3336ZM10 5.33359C9.67036 5.33359 9.34813 5.43134 9.07405 5.61447C8.79997 5.79761 8.58635 6.05791 8.4602 6.36245C8.33405 6.66699 8.30105 7.0021 8.36536 7.32541C8.42967 7.64871 8.5884 7.94568 8.82149 8.17877C9.05458 8.41185 9.35155 8.57059 9.67485 8.6349C9.99815 8.69921 10.3333 8.6662 10.6378 8.54005C10.9423 8.41391 11.2026 8.20029 11.3858 7.9262C11.5689 7.65212 11.6667 7.32989 11.6667 7.00025C11.6667 6.55823 11.4911 6.1343 11.1785 5.82174C10.8659 5.50918 10.442 5.33359 10 5.33359ZM4.16667 3.66692C4.00185 3.66692 3.84073 3.7158 3.70369 3.80736C3.56665 3.89893 3.45984 4.02908 3.39677 4.18135C3.33369 4.33362 3.31719 4.50118 3.34935 4.66283C3.3815 4.82448 3.46087 4.97297 3.57741 5.08951C3.69395 5.20605 3.84244 5.28542 4.00409 5.31758C4.16574 5.34973 4.3333 5.33323 4.48557 5.27015C4.63784 5.20708 4.76799 5.10027 4.85956 4.96323C4.95113 4.82619 5 4.66507 5 4.50025C5 4.27924 4.9122 4.06728 4.75592 3.911C4.59964 3.75472 4.38768 3.66692 4.16667 3.66692ZM15 4.50025C15 4.66507 15.0489 4.82619 15.1404 4.96323C15.232 5.10027 15.3622 5.20708 15.5144 5.27015C15.6667 5.33323 15.8343 5.34973 15.9959 5.31758C16.1576 5.28542 16.306 5.20605 16.4226 5.08951C16.5391 4.97297 16.6185 4.82448 16.6507 4.66283C16.6828 4.50118 16.6663 4.33362 16.6032 4.18135C16.5402 4.02908 16.4333 3.89893 16.2963 3.80736C16.1593 3.7158 15.9982 3.66692 15.8333 3.66692C15.6123 3.66692 15.4004 3.75472 15.2441 3.911C15.0878 4.06728 15 4.27924 15 4.50025ZM4.16667 8.66692C4.00185 8.66692 3.84073 8.7158 3.70369 8.80736C3.56665 8.89893 3.45984 9.02908 3.39677 9.18135C3.33369 9.33362 3.31719 9.50118 3.34935 9.66283C3.3815 9.82448 3.46087 9.97297 3.57741 10.0895C3.69395 10.2061 3.84244 10.2854 4.00409 10.3176C4.16574 10.3497 4.3333 10.3332 4.48557 10.2702C4.63784 10.2071 4.76799 10.1003 4.85956 9.96323C4.95113 9.82619 5 9.66507 5 9.50025C5 9.27924 4.9122 9.06728 4.75592 8.911C4.59964 8.75472 4.38768 8.66692 4.16667 8.66692ZM15 9.50025C15 9.66507 15.0489 9.82619 15.1404 9.96323C15.232 10.1003 15.3622 10.2071 15.5144 10.2702C15.6667 10.3332 15.8343 10.3497 15.9959 10.3176C16.1576 10.2854 16.306 10.2061 16.4226 10.0895C16.5391 9.97297 16.6185 9.82448 16.6507 9.66283C16.6828 9.50118 16.6663 9.33362 16.6032 9.18135C16.5402 9.02908 16.4333 8.89893 16.2963 8.80736C16.1593 8.7158 15.9982 8.66692 15.8333 8.66692C15.6123 8.66692 15.4004 8.75472 15.2441 8.911C15.0878 9.06728 15 9.27924 15 9.50025Z" fill="#C1C1CD"/>
</svg>
